HIERARCHY
ROOT Hips
{
	OFFSET -0.326753919872 -24.9478514153 1.85089174299
	CHANNELS 6 Xposition Yposition Zposition Zrotation Yrotation Xrotation
	JOINT LeftHip
	{
		OFFSET 6.43643043387 -8.99538936372 -1.1817341009
		CHANNELS 3 Zrotation Yrotation Xrotation
		JOINT LeftKnee
		{
			OFFSET 3.1150617382 -33.9064110859 0.0371444800065
			CHANNELS 3 Zrotation Yrotation Xrotation
			JOINT LeftFoot
			{
				OFFSET -1.36253834122 -35.0738955616 -4.01282324104
				CHANNELS 3 Zrotation Yrotation Xrotation
				End LeftToe
				{
                                  OFFSET 2.24471678892 -5.02796817018 11.3602784852
				}
			}
		}
	}
	JOINT RightHip
	{
		OFFSET -6.24616652168 -8.83453497017 -0.978421823962
		CHANNELS 3 Zrotation Yrotation Xrotation
		JOINT RightKnee
		{
			OFFSET -3.3850436817 -34.799597242 -0.383200419783
			CHANNELS 3 Zrotation Yrotation Xrotation
			JOINT RightFoot
			{
				OFFSET 1.57715806958 -35.0844583984 -3.86644843949
				CHANNELS 3 Zrotation Yrotation Xrotation
				End RightToe
				{
                                        OFFSET -2.04019189511 -4.32096573303 11.7246033674
				}
			}
		}
	}
	JOINT Waist
	{
		OFFSET -0.277694007644 10.7854367543 -2.06382825941
		CHANNELS 3 Zrotation Yrotation Xrotation
		JOINT Spine
		{
			OFFSET 0.714622407158 15.3217644512 0.596707824803
			CHANNELS 3 Zrotation Yrotation Xrotation
                        JOINT Chest
                        {
                            OFFSET 0.136610018251 5.79189119097 2.38402828319
                            CHANNELS 3 Zrotation Yrotation Xrotation
                            JOINT Neck
                            {
                                OFFSET -0.399994612858 21.5568009562 -4.11691291316
                                CHANNELS 3 Zrotation Yrotation Xrotation
                                End Head
                                {
                                        OFFSET 0.102454750795 27.6686258849 2.35114886297
                                }
                            }
                            JOINT LeftInnerShoulder
                            {
                                OFFSET 7.54838881555 11.9228350966 -3.1556630336
                                CHANNELS 3 Zrotation Yrotation Xrotation
                                JOINT LeftShoulder
                                {
                                        OFFSET 9.06603709535 2.59498892235 -0.809789211977
                                        CHANNELS 3 Zrotation Yrotation Xrotation
                                        JOINT LeftElbow
                                        {
                                                OFFSET 23.6848670771 -0.943538285354 -2.3169260506
                                                CHANNELS 3 Zrotation Yrotation Xrotation
                                                End LeftWrist
                                                {
                                                        OFFSET 22.5185239347 0.580133149396 -0.147795513546
                                                }
                                        }
                                }
                            }
                            JOINT RightInnerShoulder
                            {
                                OFFSET -7.90114115077 11.5526563968 -3.68175838087
                                CHANNELS 3 Zrotation Yrotation Xrotation
                                JOINT RightShoulder
                                {
                                        OFFSET -9.54063966072 2.8285964628 -0.927093343043
                                        CHANNELS 3 Zrotation Yrotation Xrotation
                                        JOINT RightElbow
                                        {
                                                OFFSET -22.9304760891 -0.951196562533 -1.81251228021
                                                CHANNELS 3 Zrotation Yrotation Xrotation
                                                End RightWrist
                                                {
                                                        OFFSET -22.9691977063 0.334780910425 -0.620472016605
                                                }
                                        }
                                }
                            }
                        }
                }
            }
}
MOTION
Frames: 12
Frame Time: 0.0333333333333
0.00000 0.00000 0.00000 0.33287 -89.68095 -3.01808 9.50377 -5.69501 -83.98485 -14.18105 5.11618 96.72973 8.40252 14.55177 -17.42976 -6.33155 -5.15049 -84.54526 -1.05912 -7.98681 106.41674 11.25182 -13.45843 -5.41028 1.97511 1.33239 74.59520 -1.16908 5.73536 -17.17228 6.79814 2.76859 8.77916 -9.92470 -8.24990 -7.62039 4.54609 15.04924 1.81355 -46.65191 20.04693 -10.07221 -8.34231 0.67529 5.78637 -5.65704 0.84984 1.17468 69.94114 -10.36272 -1.22862 3.81276 11.99129 8.39305
-2.84289 -1.12092 -0.00163 -125.79049 -88.59926 120.31854 9.22985 -3.40035 -83.18958 -12.60280 7.91306 97.94483 6.99985 14.52076 -17.88793 -5.80879 -2.75227 -83.75734 0.27328 -7.45554 108.13094 10.80006 -10.30389 -4.30761 0.94408 1.13250 73.19066 -0.99015 5.20307 -13.84161 5.83848 2.66472 8.46878 -9.09416 -9.34857 -5.84566 5.11182 14.55247 2.97632 -50.34063 21.52024 -10.13704 -7.59846 -2.68326 7.77069 -6.18747 3.08581 1.09290 69.80724 -6.38277 0.49488 3.98902 11.74452 12.55424
-4.56307 -8.38409 0.01206 -88.44576 -88.25643 83.38601 7.91723 -1.95310 -85.53858 -9.95036 13.12861 104.31831 9.38256 10.74610 -16.36293 -5.93084 -2.17957 -86.37354 0.40361 -6.63107 111.59179 11.63157 -9.85840 -2.30525 -0.15077 -0.40360 71.87492 -0.87204 2.72882 -18.21091 5.46535 -0.20792 6.10763 -8.22559 -7.39894 -16.99980 -3.42624 9.88939 0.79599 -56.82834 11.39091 -6.04268 -13.20734 8.64361 1.12977 -3.13710 0.00003 -1.75546 67.90071 -2.46892 1.37445 -1.13160 9.34736 -1.69831
-6.45994 -16.31352 0.01150 -34.04943 -82.08884 19.19249 3.55006 -6.09751 -81.72465 -7.58391 18.95398 112.93515 15.17912 9.84072 -24.52728 -6.28300 -4.41301 -78.62339 1.26765 -6.13161 120.81093 8.42143 -4.51012 -13.22916 1.57394 -2.61411 70.09809 0.56170 2.75216 -17.58585 6.72410 -0.37335 6.91858 -2.86378 -14.35575 -13.61616 -0.23780 3.24924 0.47240 -74.89677 -2.21558 1.56265 -7.45178 -3.91983 10.89291 -12.25083 2.61139 -3.57582 78.00823 1.51844 2.36860 -5.56999 7.92036 -1.89846
-4.87577 -21.82603 0.15080 -95.97063 -82.18787 77.93476 8.32814 -1.94391 -84.93846 1.01779 21.26950 121.99086 12.53008 9.95918 -11.30223 -3.85520 -0.11003 -82.14024 1.59659 -5.54045 121.45399 6.22106 -2.81135 -9.06670 -0.11469 -2.97565 66.32291 -1.89232 0.29844 -18.11622 5.80286 -0.58665 3.60265 -2.27456 -11.22169 -19.27990 -12.87028 -10.44373 0.83419 -68.87053 -6.55874 10.55333 -6.37245 -5.88227 11.60890 -7.66900 13.08287 -6.90093 69.73933 10.85255 6.48453 -0.15185 18.84190 -1.65981
0.35038 -23.38581 0.14630 -139.05239 -81.00568 113.71032 9.17510 0.54843 -76.87889 -0.14316 22.25026 117.42099 14.40836 16.36099 -19.64183 -1.48974 4.03483 -81.24234 -1.64040 -5.90874 120.77029 2.85263 -7.55242 -25.90552 -3.14491 -3.44376 62.36038 -2.72194 -4.26256 -19.43913 6.49351 -0.94549 3.07070 -9.07755 -2.75857 -16.20572 -11.70578 -19.89373 -0.81024 -55.49372 -14.51018 15.14634 -4.99104 -23.40990 18.58157 -5.04488 22.48385 -9.30815 65.06849 27.14907 11.17407 8.56373 25.12473 9.48782
0.32394 -24.14893 0.12672 -106.37908 -80.93174 76.12561 8.96233 -4.52853 -73.69572 -1.98898 20.82475 119.33121 13.29701 16.62754 -22.89424 -1.41115 -0.07141 -71.05451 -0.34040 -5.29512 125.57620 -0.61372 -4.88958 -29.33473 -0.44537 -1.33382 57.95866 -0.85956 -1.77229 -18.20851 8.91741 2.49605 2.58144 -14.55816 -5.61592 -9.99783 2.33827 -25.44477 -8.06898 -49.72533 -28.32781 19.04833 -11.16233 -52.53535 16.71672 -16.43157 23.10822 -13.01103 59.53292 28.26311 10.78623 8.61079 49.42833 3.42345
1.14176 -28.38289 0.15191 -120.90752 -80.43506 82.95756 5.76234 -2.50628 -67.77203 -4.04077 21.02784 122.27284 13.30588 14.53038 -26.02330 -2.37508 -1.49960 -63.15504 3.23237 -6.51012 126.51840 1.32659 -6.10218 -26.30548 0.96816 -0.28868 53.78818 -1.92136 -2.28883 -14.31110 6.07757 2.98841 0.82234 -19.36971 7.92933 -14.53244 13.90826 -38.31408 -19.82271 -26.79213 -36.28176 -3.68790 2.08650 -14.08512 -12.08083 -20.75422 39.50816 -20.98285 39.15147 47.09002 -1.55337 0.90356 18.74153 -14.78255
0.53264 -27.36824 0.16976 -92.70289 -74.42494 53.44168 3.70022 -4.71472 -64.86820 -8.43906 18.46297 121.86382 10.25155 11.38532 -22.18567 -3.77505 -3.67906 -58.97046 3.69390 -7.41350 121.11766 7.96023 -8.81086 -19.12414 2.36392 -0.22190 49.31365 -0.28139 -4.47729 -14.57940 7.02501 2.92136 0.42354 -23.71396 14.06260 -25.78686 30.49998 -43.14067 -31.13688 -1.94604 -30.01508 -12.18626 -3.55732 -22.88236 -1.17811 -33.81204 43.04401 -28.75567 12.45362 43.00626 -16.53398 3.67530 29.20241 -9.33603
-1.91340 -24.94664 0.08177 -98.66835 -77.60601 56.41522 2.06575 -6.50063 -56.61277 -6.92041 17.81557 117.49970 8.38077 11.26695 -17.68811 -1.76214 -0.71679 -51.90165 6.85988 -1.91404 116.18772 16.82318 -11.05752 0.81023 1.33631 0.79124 39.86254 -7.91092 -0.44255 -10.45429 1.62659 6.12496 0.64820 -20.59636 7.71896 -16.59413 34.86444 -36.84719 -33.36469 -4.17597 -34.87855 -18.33127 3.72156 -24.24141 -21.23321 -49.86771 36.04419 -35.77776 0.26981 42.31049 -27.83641 1.71936 21.61168 -26.13516
-2.31694 -12.28250 0.01029 -117.97355 -75.80965 70.84500 0.68789 -4.14941 -41.36639 -6.87884 16.98264 107.08041 5.09683 6.37419 -11.30205 1.35732 2.52319 -37.08363 7.80594 1.39733 106.28596 18.29523 -13.72882 19.41205 -2.59070 2.18901 30.29427 -8.90619 2.34847 -2.50361 -1.00257 5.51034 0.51009 -11.40075 -0.73602 -18.13214 29.30870 -26.74470 -26.28199 -1.51983 -28.57502 -20.92021 71.60436 -55.18689 -85.65365 -50.93890 28.79719 -33.83961 -7.00122 35.98540 -28.33176 -61.95034 49.02877 -84.90350
-1.09513 6.74569 -0.12857 -126.10811 -70.73408 82.40680 2.50400 -3.58331 -33.18687 -0.38550 15.60475 89.79448 2.34027 11.82758 -2.09243 6.50091 5.30385 -27.21825 4.43829 5.86745 79.48869 19.59643 -20.59138 32.17140 -5.25228 2.12610 16.84983 -9.12062 -1.13795 -9.43971 0.38456 3.37757 2.01925 -3.13981 -6.11893 -17.70070 38.40268 -19.70687 -30.01687 1.65607 -33.62060 -28.32791 70.17365 -44.36411 -89.29629 -60.39780 16.31573 -36.48746 -0.08121 39.96884 -24.99951 -79.75520 48.32769 -98.39875
